<svg width="392" height="318" viewBox="0 0 392 318" fill="none" xmlns="http://www.w3.org/2000/svg">
<g filter="url(#filter0_f_7_1587)">
<path d="M121.151 212.951C114.86 212.952 108.584 212.315 102.421 211.051C90.5263 208.601 79.233 203.825 69.19 196.996C55.2765 187.566 44.1602 174.561 37.0093 159.35C29.8584 144.139 26.937 127.282 28.5522 110.551C30.1673 93.8205 36.2594 77.8339 46.188 64.2713C56.1167 50.7087 69.5154 40.0711 84.976 33.4762C90.5964 31.0892 96.4401 29.2669 102.421 28.0362C112.154 26.0444 122.142 25.616 132.009 26.7672C129.908 31.3622 128.301 36.1671 127.215 41.1012C126.098 46.1922 125.536 51.3892 125.537 56.6012C125.514 70.9083 129.786 84.8929 137.799 96.7452C142.965 104.39 149.548 110.973 157.192 116.139C161.035 118.735 165.121 120.952 169.392 122.759C178.234 126.501 187.739 128.42 197.34 128.401C202.895 128.405 208.432 127.767 213.84 126.501C212.565 144.073 206.338 160.924 195.879 175.101C192.496 179.688 188.703 183.958 184.546 187.857C167.388 204.001 144.71 212.978 121.151 212.951Z" fill="#713FFD"/>
</g>
<g filter="url(#filter1_f_7_1587)">
<path d="M104.798 106.695C125.66 87.911 132.155 61.1135 119.304 46.8412C106.453 32.569 79.1234 36.2268 58.2614 55.011C37.3993 73.7953 30.9049 100.593 43.7557 114.865C56.6064 129.137 83.936 125.48 104.798 106.695Z" fill="#A586FC"/>
</g>
<g filter="url(#filter2_f_7_1587)">
<path d="M75.9873 2L79.0873 9.665L87.4873 12.5L79.0873 15.335L75.9873 23L72.8873 15.335L64.4873 12.5L72.8873 9.665L75.9873 2Z" fill="url(#paint0_linear_7_1587)"/>
<g filter="url(#filter3_f_7_1587)">
<path d="M214.987 181L217.552 187.2L224.487 189.5L217.552 191.8L214.987 198L212.422 191.8L205.487 189.5L212.422 187.2L214.987 181Z" fill="url(#paint1_linear_7_1587)"/>
</g>
<path d="M173.496 25.8661L177.806 31.5134L185.487 31.9701L179.065 36.2081L178.158 43.2541L173.848 37.6067L166.167 37.1501L172.589 32.912L173.496 25.8661Z" fill="url(#paint2_linear_7_1587)"/>
<path d="M19.7495 167.063L24.3953 171.439L31.627 170.717L26.0844 175.418L26.0055 181.799L21.3597 177.424L14.128 178.146L19.6706 173.445L19.7495 167.063Z" fill="url(#paint3_linear_7_1587)"/>
<path d="M169.433 88.4751L164.324 89.5124L161.3 94.8079L160.903 88.7228L156.766 85.5508L161.875 84.5135L164.899 79.218L165.295 85.3031L169.433 88.4751Z" fill="url(#paint4_linear_7_1587)"/>
</g>
<g filter="url(#filter4_df_7_1587)">
<g filter="url(#filter5_d_7_1587)">
<path d="M235.781 285.765C233.848 285.92 231.895 285.999 229.924 286H92.3999C82.9337 286.035 73.5536 284.201 64.7978 280.603C56.0419 277.005 48.0826 271.714 41.3765 265.032C34.6703 258.351 29.3492 250.412 25.7185 241.669C22.0877 232.927 20.2187 223.554 20.2188 214.087C20.2187 204.621 22.0877 195.248 25.7185 186.506C29.3492 177.763 34.6703 169.824 41.3765 163.143C48.0826 156.461 56.0419 151.17 64.7978 147.572C73.5536 143.974 82.9337 142.14 92.3999 142.175H143.676C160.3 105.6 198.587 80 243.16 80C302.987 80 351.487 126.115 351.487 183C351.487 239.885 302.987 286 243.16 286C240.68 286 238.22 285.922 235.781 285.765Z" fill="url(#paint5_linear_7_1587)"/>
<path d="M243.16 285C250.446 285 257.727 284.302 264.801 282.926C271.694 281.585 278.474 279.584 284.953 276.978C291.313 274.42 297.448 271.254 303.186 267.568C308.87 263.917 314.214 259.725 319.07 255.107C323.926 250.49 328.333 245.411 332.172 240.009C336.046 234.557 339.373 228.728 342.061 222.686C344.798 216.532 346.9 210.093 348.309 203.547C349.755 196.831 350.488 189.917 350.488 183C350.488 176.082 349.755 169.169 348.309 162.452C346.9 155.906 344.798 149.467 342.061 143.314C339.373 137.272 336.046 131.443 332.172 125.991C328.333 120.589 323.926 115.51 319.07 110.893C314.214 106.275 308.87 102.083 303.186 98.4323C297.448 94.7461 291.313 91.5801 284.953 89.0221C278.474 86.4165 271.694 84.4154 264.801 83.0742C257.727 81.6979 250.446 81 243.16 81C221.789 81 201.15 86.9523 183.474 98.2135C174.953 103.642 167.297 110.194 160.717 117.688C154.095 125.229 148.668 133.607 144.586 142.588L144.32 143.175H143.676H92.4C82.8264 143.175 73.5398 145.049 64.7979 148.747C60.5963 150.524 56.5437 152.724 52.7528 155.285C48.9976 157.822 45.4664 160.735 42.2572 163.945C39.048 167.154 36.1345 170.685 33.5975 174.44C31.0364 178.231 28.8368 182.284 27.0596 186.485C23.3621 195.227 21.4873 204.514 21.4873 214.087C21.4873 223.661 23.3621 232.948 27.0596 241.689C28.8368 245.891 31.0364 249.944 33.5975 253.735C36.1345 257.49 39.048 261.021 42.2572 264.23C45.4664 267.439 48.9976 270.353 52.7528 272.89C56.5437 275.451 60.5963 277.651 64.7979 279.428C73.5398 283.125 82.8264 285 92.4 285H229.924C231.847 285 233.791 284.922 235.701 284.768L235.773 284.762L235.846 284.767C238.265 284.922 240.726 285 243.16 285ZM243.16 286C240.68 286 238.22 285.921 235.782 285.765C233.851 285.92 231.895 286 229.924 286H92.4C52.6839 286 20.4873 253.803 20.4873 214.087C20.4873 174.371 52.6839 142.175 92.4 142.175H143.676C160.3 105.595 198.585 80 243.16 80C302.987 80 351.488 126.115 351.488 183C351.488 239.885 302.987 286 243.16 286Z" fill="white" fill-opacity="0.5"/>
</g>
</g>
<defs>
<filter id="filter0_f_7_1587" x="24.1191" y="22.1372" width="193.721" height="194.814" filterUnits="userSpaceOnUse" color-interpolation-filters="sRGB">
<feFlood flood-opacity="0" result="BackgroundImageFix"/>
<feBlend mode="normal" in="SourceGraphic" in2="BackgroundImageFix" result="shape"/>
<feGaussianBlur stdDeviation="2" result="effect1_foregroundBlur_7_1587"/>
</filter>
<filter id="filter1_f_7_1587" x="17.1582" y="18.1353" width="128.743" height="125.436" filterUnits="userSpaceOnUse" color-interpolation-filters="sRGB">
<feFlood flood-opacity="0" result="BackgroundImageFix"/>
<feBlend mode="normal" in="SourceGraphic" in2="BackgroundImageFix" result="shape"/>
<feGaussianBlur stdDeviation="10" result="effect1_foregroundBlur_7_1587"/>
</filter>
<filter id="filter2_f_7_1587" x="12.1279" y="0" width="214.359" height="200" filterUnits="userSpaceOnUse" color-interpolation-filters="sRGB">
<feFlood flood-opacity="0" result="BackgroundImageFix"/>
<feBlend mode="normal" in="SourceGraphic" in2="BackgroundImageFix" result="shape"/>
<feGaussianBlur stdDeviation="1" result="effect1_foregroundBlur_7_1587"/>
</filter>
<filter id="filter3_f_7_1587" x="203.487" y="179" width="23" height="21" filterUnits="userSpaceOnUse" color-interpolation-filters="sRGB">
<feFlood flood-opacity="0" result="BackgroundImageFix"/>
<feBlend mode="normal" in="SourceGraphic" in2="BackgroundImageFix" result="shape"/>
<feGaussianBlur stdDeviation="1" result="effect1_foregroundBlur_7_1587"/>
</filter>
<filter id="filter4_df_7_1587" x="0.21875" y="52" width="391.269" height="266" filterUnits="userSpaceOnUse" color-interpolation-filters="sRGB">
<feFlood flood-opacity="0" result="BackgroundImageFix"/>
<feColorMatrix in="SourceAlpha" type="matrix" values="0 0 0 0 0 0 0 0 0 0 0 0 0 0 0 0 0 0 127 0" result="hardAlpha"/>
<feOffset dx="10" dy="2"/>
<feGaussianBlur stdDeviation="15"/>
<feColorMatrix type="matrix" values="0 0 0 0 0.258824 0 0 0 0 0.627451 0 0 0 0 0.941176 0 0 0 0.596 0"/>
<feBlend mode="normal" in2="BackgroundImageFix" result="effect1_dropShadow_7_1587"/>
<feBlend mode="normal" in="SourceGraphic" in2="effect1_dropShadow_7_1587" result="shape"/>
<feGaussianBlur stdDeviation="2" result="effect2_foregroundBlur_7_1587"/>
</filter>
<filter id="filter5_d_7_1587" x="0.21875" y="52" width="391.269" height="266" filterUnits="userSpaceOnUse" color-interpolation-filters="sRGB">
<feFlood flood-opacity="0" result="BackgroundImageFix"/>
<feColorMatrix in="SourceAlpha" type="matrix" values="0 0 0 0 0 0 0 0 0 0 0 0 0 0 0 0 0 0 127 0" result="hardAlpha"/>
<feOffset dx="10" dy="2"/>
<feGaussianBlur stdDeviation="15"/>
<feColorMatrix type="matrix" values="0 0 0 0 0.501961 0 0 0 0 0.501961 0 0 0 0 0.501961 0 0 0 0.302 0"/>
<feBlend mode="normal" in2="BackgroundImageFix" result="effect1_dropShadow_7_1587"/>
<feBlend mode="normal" in="SourceGraphic" in2="effect1_dropShadow_7_1587" result="shape"/>
</filter>
<linearGradient id="paint0_linear_7_1587" x1="75.9873" y1="2" x2="75.9873" y2="23" gradientUnits="userSpaceOnUse">
<stop stop-color="#6B38FC"/>
<stop offset="1" stop-color="#9F7EFD"/>
</linearGradient>
<linearGradient id="paint1_linear_7_1587" x1="214.987" y1="181" x2="214.987" y2="198" gradientUnits="userSpaceOnUse">
<stop stop-color="#6B38FC"/>
<stop offset="1" stop-color="#9F7EFD"/>
</linearGradient>
<linearGradient id="paint2_linear_7_1587" x1="173.496" y1="25.8661" x2="178.158" y2="43.2541" gradientUnits="userSpaceOnUse">
<stop stop-color="#6B38FC"/>
<stop offset="1" stop-color="#9F7EFD"/>
</linearGradient>
<linearGradient id="paint3_linear_7_1587" x1="19.7495" y1="167.063" x2="26.0055" y2="181.799" gradientUnits="userSpaceOnUse">
<stop stop-color="#6B38FC"/>
<stop offset="1" stop-color="#9F7EFD"/>
</linearGradient>
<linearGradient id="paint4_linear_7_1587" x1="169.433" y1="88.4751" x2="156.766" y2="85.5508" gradientUnits="userSpaceOnUse">
<stop stop-color="#6B38FC"/>
<stop offset="1" stop-color="#9F7EFD"/>
</linearGradient>
<linearGradient id="paint5_linear_7_1587" x1="154.382" y1="105.956" x2="220.424" y2="297.168" gradientUnits="userSpaceOnUse">
<stop stop-color="white" stop-opacity="0.596"/>
<stop offset="1" stop-color="#F7F7F7" stop-opacity="0.204"/>
</linearGradient>
</defs>
</svg>
