<svg width="392" height="318" viewBox="0 0 392 318" fill="none" xmlns="http://www.w3.org/2000/svg">
<g filter="url(#filter0_f_7_1630)">
<path d="M185.79 131C191.31 131.061 247.312 218.5 247.312 252.478C247.312 268.795 240.83 284.443 229.292 295.981C217.755 307.518 202.106 314 185.79 314C169.473 314 153.825 307.518 142.287 295.981C130.749 284.443 124.268 268.795 124.268 252.478C124.268 218.5 180.268 130.939 185.79 131Z" fill="#42A0F0"/>
<g filter="url(#filter1_f_7_1630)">
<path d="M138.882 275.475C145.029 277.354 152.842 269.623 156.333 258.206C159.823 246.79 157.669 236.011 151.522 234.132C145.375 232.253 137.562 239.984 134.072 251.4C130.581 262.817 132.735 273.596 138.882 275.475Z" fill="white"/>
</g>
</g>
<g filter="url(#filter2_df_7_1630)">
<g filter="url(#filter3_d_7_1630)">
<path d="M235.562 233.765C233.629 233.92 231.676 233.999 229.705 234H92.1812C82.7149 234.035 73.3348 232.201 64.579 228.603C55.8232 225.005 47.8639 219.714 41.1577 213.032C34.4516 206.351 29.1305 198.412 25.4997 189.669C21.869 180.927 20 171.554 20 162.087C20 152.621 21.869 143.248 25.4997 134.506C29.1305 125.763 34.4516 117.824 41.1577 111.143C47.8639 104.461 55.8232 99.17 64.579 95.5718C73.3348 91.9737 82.7149 90.1397 92.1812 90.175H143.457C160.081 53.6 198.368 28 242.941 28C302.768 28 351.268 74.115 351.268 131C351.268 187.885 302.768 234 242.941 234C240.461 234 238.001 233.922 235.562 233.765Z" fill="url(#paint0_linear_7_1630)"/>
<path d="M242.941 233C250.227 233 257.508 232.302 264.582 230.926C271.475 229.585 278.255 227.584 284.734 224.978C291.095 222.42 297.229 219.254 302.968 215.568C308.651 211.917 313.995 207.725 318.851 203.107C323.707 198.49 328.115 193.411 331.953 188.009C335.827 182.557 339.154 176.728 341.842 170.686C344.579 164.532 346.682 158.093 348.09 151.547C349.536 144.831 350.269 137.917 350.269 131C350.269 124.082 349.536 117.169 348.09 110.452C346.682 103.906 344.579 97.4673 341.842 91.3142C339.154 85.2716 335.827 79.4433 331.953 73.991C328.115 68.5893 323.707 63.5095 318.851 58.8928C313.995 54.2752 308.651 50.0829 302.968 46.4323C297.229 42.7461 291.095 39.5801 284.734 37.0221C278.255 34.4165 271.475 32.4154 264.582 31.0742C257.508 29.6979 250.227 29 242.941 29C221.57 29 200.931 34.9523 183.255 46.2135C174.734 51.6418 167.078 58.1939 160.498 65.6878C153.876 73.2291 148.449 81.6069 144.367 90.5885L144.101 91.1747H143.457H92.1812C82.6077 91.1747 73.321 93.0495 64.5792 96.747C60.3776 98.5242 56.325 100.724 52.5341 103.285C48.7789 105.822 45.2477 108.735 42.0385 111.945C38.8293 115.154 35.9157 118.685 33.3788 122.44C30.8177 126.231 28.618 130.284 26.8408 134.485C23.1433 143.227 21.2686 152.514 21.2686 162.087C21.2686 171.661 23.1433 180.948 26.8408 189.689C28.618 193.891 30.8177 197.944 33.3788 201.735C35.9157 205.49 38.8293 209.021 42.0385 212.23C45.2477 215.439 48.7789 218.353 52.5341 220.89C56.325 223.451 60.3776 225.651 64.5792 227.428C73.321 231.125 82.6077 233 92.1812 233H229.706C231.629 233 233.572 232.922 235.483 232.768L235.555 232.762L235.627 232.767C238.046 232.922 240.507 233 242.941 233ZM242.941 234C240.462 234 238.001 233.921 235.563 233.765C233.632 233.92 231.676 234 229.706 234H92.1812C52.4651 234 20.2686 201.803 20.2686 162.087C20.2686 122.371 52.4651 90.1747 92.1812 90.1747H143.457C160.081 53.5954 198.366 28 242.941 28C302.769 28 351.269 74.1151 351.269 131C351.269 187.885 302.769 234 242.941 234Z" fill="white" fill-opacity="0.5"/>
</g>
</g>
<defs>
<filter id="filter0_f_7_1630" x="120.268" y="127" width="131.044" height="191" filterUnits="userSpaceOnUse" color-interpolation-filters="sRGB">
<feFlood flood-opacity="0" result="BackgroundImageFix"/>
<feBlend mode="normal" in="SourceGraphic" in2="BackgroundImageFix" result="shape"/>
<feGaussianBlur stdDeviation="2" result="effect1_foregroundBlur_7_1630"/>
</filter>
<filter id="filter1_f_7_1630" x="128.4" y="229.851" width="33.6035" height="49.9058" filterUnits="userSpaceOnUse" color-interpolation-filters="sRGB">
<feFlood flood-opacity="0" result="BackgroundImageFix"/>
<feBlend mode="normal" in="SourceGraphic" in2="BackgroundImageFix" result="shape"/>
<feGaussianBlur stdDeviation="2" result="effect1_foregroundBlur_7_1630"/>
</filter>
<filter id="filter2_df_7_1630" x="0" y="0" width="391.269" height="266" filterUnits="userSpaceOnUse" color-interpolation-filters="sRGB">
<feFlood flood-opacity="0" result="BackgroundImageFix"/>
<feColorMatrix in="SourceAlpha" type="matrix" values="0 0 0 0 0 0 0 0 0 0 0 0 0 0 0 0 0 0 127 0" result="hardAlpha"/>
<feOffset dx="10" dy="2"/>
<feGaussianBlur stdDeviation="15"/>
<feColorMatrix type="matrix" values="0 0 0 0 0.258824 0 0 0 0 0.627451 0 0 0 0 0.941176 0 0 0 0.596 0"/>
<feBlend mode="normal" in2="BackgroundImageFix" result="effect1_dropShadow_7_1630"/>
<feBlend mode="normal" in="SourceGraphic" in2="effect1_dropShadow_7_1630" result="shape"/>
<feGaussianBlur stdDeviation="2" result="effect2_foregroundBlur_7_1630"/>
</filter>
<filter id="filter3_d_7_1630" x="0" y="0" width="391.269" height="266" filterUnits="userSpaceOnUse" color-interpolation-filters="sRGB">
<feFlood flood-opacity="0" result="BackgroundImageFix"/>
<feColorMatrix in="SourceAlpha" type="matrix" values="0 0 0 0 0 0 0 0 0 0 0 0 0 0 0 0 0 0 127 0" result="hardAlpha"/>
<feOffset dx="10" dy="2"/>
<feGaussianBlur stdDeviation="15"/>
<feColorMatrix type="matrix" values="0 0 0 0 0.501961 0 0 0 0 0.501961 0 0 0 0 0.501961 0 0 0 0.302 0"/>
<feBlend mode="normal" in2="BackgroundImageFix" result="effect1_dropShadow_7_1630"/>
<feBlend mode="normal" in="SourceGraphic" in2="effect1_dropShadow_7_1630" result="shape"/>
</filter>
<linearGradient id="paint0_linear_7_1630" x1="154.164" y1="53.9561" x2="220.206" y2="245.168" gradientUnits="userSpaceOnUse">
<stop stop-color="white" stop-opacity="0.596"/>
<stop offset="1" stop-color="#F7F7F7" stop-opacity="0.204"/>
</linearGradient>
</defs>
</svg>
