<svg width="392" height="320" viewBox="0 0 392 320" fill="none" xmlns="http://www.w3.org/2000/svg">
<g filter="url(#filter0_f_7_1847)">
<path d="M186.432 174.204V303.75" stroke="#42A0F0" stroke-width="10" stroke-linecap="round"/>
<path d="M186.172 205.87L208.483 182.84" stroke="#42A0F0" stroke-width="10" stroke-linecap="round"/>
<path d="M186.172 205.87L163.142 182.84" stroke="#42A0F0" stroke-width="10" stroke-linecap="round"/>
<path d="M186.172 274.962L208.483 297.992" stroke="#42A0F0" stroke-width="10" stroke-linecap="round"/>
<path d="M186.172 274.962L163.142 297.992" stroke="#42A0F0" stroke-width="10" stroke-linecap="round"/>
<path d="M242.217 207.127L130.027 271.9" stroke="#42A0F0" stroke-width="10" stroke-linecap="round"/>
<path d="M214.664 222.734L245.764 230.541" stroke="#42A0F0" stroke-width="10" stroke-linecap="round"/>
<path d="M214.664 222.734L223.094 191.275" stroke="#42A0F0" stroke-width="10" stroke-linecap="round"/>
<path d="M154.828 257.28L146.039 288.117" stroke="#42A0F0" stroke-width="10" stroke-linecap="round"/>
<path d="M154.828 257.281L123.369 248.851" stroke="#42A0F0" stroke-width="10" stroke-linecap="round"/>
<path d="M241.599 271.9L129.409 207.127" stroke="#42A0F0" stroke-width="10" stroke-linecap="round"/>
<path d="M214.305 255.841L223.094 286.678" stroke="#42A0F0" stroke-width="10" stroke-linecap="round"/>
<path d="M214.305 255.842L245.765 247.412" stroke="#42A0F0" stroke-width="10" stroke-linecap="round"/>
<path d="M154.47 221.295L123.37 229.102" stroke="#42A0F0" stroke-width="10" stroke-linecap="round"/>
<path d="M154.469 221.296L146.04 189.836" stroke="#42A0F0" stroke-width="10" stroke-linecap="round"/>
</g>
<path d="M138.864 148.295V157.143" stroke="#42A0F0" stroke-linecap="round"/>
<path d="M138.673 150.454L140.112 149.734" stroke="#42A0F0" stroke-linecap="round"/>
<path d="M138.673 150.454L136.514 149.734" stroke="#42A0F0" stroke-linecap="round"/>
<path d="M138.673 155.492L140.112 156.212" stroke="#42A0F0" stroke-linecap="round"/>
<path d="M138.673 155.492L136.514 156.212" stroke="#42A0F0" stroke-linecap="round"/>
<path d="M142.675 150.544L135.012 154.968" stroke="#42A0F0" stroke-linecap="round"/>
<path d="M140.792 151.61L142.916 152.143" stroke="#42A0F0" stroke-linecap="round"/>
<path d="M140.792 151.61L141.368 149.461" stroke="#42A0F0" stroke-linecap="round"/>
<path d="M136.705 153.969L136.105 156.076" stroke="#42A0F0" stroke-linecap="round"/>
<path d="M136.705 153.969L134.557 153.393" stroke="#42A0F0" stroke-linecap="round"/>
<path d="M142.631 154.968L134.968 150.544" stroke="#42A0F0" stroke-linecap="round"/>
<path d="M140.768 153.871L141.368 155.977" stroke="#42A0F0" stroke-linecap="round"/>
<path d="M140.767 153.871L142.916 153.295" stroke="#42A0F0" stroke-linecap="round"/>
<path d="M136.681 151.511L134.556 152.045" stroke="#42A0F0" stroke-linecap="round"/>
<path d="M136.68 151.511L136.105 149.362" stroke="#42A0F0" stroke-linecap="round"/>
<path d="M260.936 167.885V183.053" stroke="#42A0F0" stroke-linecap="round"/>
<path d="M260.303 171.326L263.182 170.606" stroke="#42A0F0" stroke-linecap="round"/>
<path d="M260.303 171.326L256.704 170.606" stroke="#42A0F0" stroke-linecap="round"/>
<path d="M260.303 179.962L263.182 181.401" stroke="#42A0F0" stroke-linecap="round"/>
<path d="M260.303 179.962L256.704 181.401" stroke="#42A0F0" stroke-linecap="round"/>
<path d="M267.466 171.74L254.33 179.324" stroke="#42A0F0" stroke-linecap="round"/>
<path d="M264.239 173.566L267.88 174.48" stroke="#42A0F0" stroke-linecap="round"/>
<path d="M264.24 173.566L265.227 169.883" stroke="#42A0F0" stroke-linecap="round"/>
<path d="M257.233 177.611L256.205 181.221" stroke="#42A0F0" stroke-linecap="round"/>
<path d="M257.234 177.611L253.551 176.624" stroke="#42A0F0" stroke-linecap="round"/>
<path d="M267.394 179.324L254.258 171.74" stroke="#42A0F0" stroke-linecap="round"/>
<path d="M264.198 177.444L265.227 181.054" stroke="#42A0F0" stroke-linecap="round"/>
<path d="M264.198 177.443L267.881 176.457" stroke="#42A0F0" stroke-linecap="round"/>
<path d="M257.192 173.398L253.552 174.312" stroke="#42A0F0" stroke-linecap="round"/>
<path d="M257.192 173.398L256.205 169.715" stroke="#42A0F0" stroke-linecap="round"/>
<path d="M251.592 279.439V291.892" stroke="#42A0F0" stroke-linecap="round"/>
<path d="M250.946 282.16L253.105 281.44" stroke="#42A0F0" stroke-linecap="round"/>
<path d="M250.946 282.16L248.067 281.44" stroke="#42A0F0" stroke-linecap="round"/>
<path d="M250.946 289.357L253.105 290.796" stroke="#42A0F0" stroke-linecap="round"/>
<path d="M250.946 289.357L248.067 290.796" stroke="#42A0F0" stroke-linecap="round"/>
<path d="M256.953 282.604L246.169 288.831" stroke="#42A0F0" stroke-linecap="round"/>
<path d="M254.305 284.105L257.295 284.855" stroke="#42A0F0" stroke-linecap="round"/>
<path d="M254.305 284.104L255.115 281.08" stroke="#42A0F0" stroke-linecap="round"/>
<path d="M248.554 287.425L247.709 290.389" stroke="#42A0F0" stroke-linecap="round"/>
<path d="M248.553 287.425L245.529 286.614" stroke="#42A0F0" stroke-linecap="round"/>
<path d="M256.894 288.83L246.109 282.604" stroke="#42A0F0" stroke-linecap="round"/>
<path d="M254.269 287.287L255.114 290.251" stroke="#42A0F0" stroke-linecap="round"/>
<path d="M254.27 287.286L257.294 286.476" stroke="#42A0F0" stroke-linecap="round"/>
<path d="M248.518 283.966L245.528 284.717" stroke="#42A0F0" stroke-linecap="round"/>
<path d="M248.518 283.966L247.708 280.942" stroke="#42A0F0" stroke-linecap="round"/>
<path d="M149.333 308.227V319.196" stroke="#42A0F0" stroke-linecap="round"/>
<path d="M148.747 310.948L150.906 310.228" stroke="#42A0F0" stroke-linecap="round"/>
<path d="M148.747 310.948L146.588 310.228" stroke="#42A0F0" stroke-linecap="round"/>
<path d="M148.747 316.705L150.906 318.144" stroke="#42A0F0" stroke-linecap="round"/>
<path d="M148.747 316.705L146.588 318.144" stroke="#42A0F0" stroke-linecap="round"/>
<path d="M154.058 311.015L144.558 316.5" stroke="#42A0F0" stroke-linecap="round"/>
<path d="M151.724 312.337L154.358 312.998" stroke="#42A0F0" stroke-linecap="round"/>
<path d="M151.725 312.337L152.438 309.673" stroke="#42A0F0" stroke-linecap="round"/>
<path d="M146.657 315.262L145.913 317.873" stroke="#42A0F0" stroke-linecap="round"/>
<path d="M146.658 315.262L143.994 314.548" stroke="#42A0F0" stroke-linecap="round"/>
<path d="M154.004 316.499L144.504 311.015" stroke="#42A0F0" stroke-linecap="round"/>
<path d="M151.694 315.139L152.438 317.75" stroke="#42A0F0" stroke-linecap="round"/>
<path d="M151.694 315.139L154.357 314.425" stroke="#42A0F0" stroke-linecap="round"/>
<path d="M146.627 312.214L143.994 312.875" stroke="#42A0F0" stroke-linecap="round"/>
<path d="M146.627 312.214L145.913 309.55" stroke="#42A0F0" stroke-linecap="round"/>
<path d="M107.942 262.166V271.063" stroke="#42A0F0" stroke-linecap="round"/>
<path d="M107.726 264.167L109.165 263.447" stroke="#42A0F0" stroke-linecap="round"/>
<path d="M107.725 264.167L105.566 263.447" stroke="#42A0F0" stroke-linecap="round"/>
<path d="M107.726 269.205L109.165 269.925" stroke="#42A0F0" stroke-linecap="round"/>
<path d="M107.725 269.205L105.566 269.925" stroke="#42A0F0" stroke-linecap="round"/>
<path d="M111.773 264.427L104.068 268.875" stroke="#42A0F0" stroke-linecap="round"/>
<path d="M109.881 265.499L112.017 266.035" stroke="#42A0F0" stroke-linecap="round"/>
<path d="M109.881 265.499L110.46 263.338" stroke="#42A0F0" stroke-linecap="round"/>
<path d="M105.771 267.872L105.167 269.99" stroke="#42A0F0" stroke-linecap="round"/>
<path d="M105.771 267.872L103.61 267.293" stroke="#42A0F0" stroke-linecap="round"/>
<path d="M111.73 268.875L104.025 264.426" stroke="#42A0F0" stroke-linecap="round"/>
<path d="M109.856 267.773L110.46 269.891" stroke="#42A0F0" stroke-linecap="round"/>
<path d="M109.856 267.773L112.017 267.194" stroke="#42A0F0" stroke-linecap="round"/>
<path d="M105.746 265.4L103.61 265.936" stroke="#42A0F0" stroke-linecap="round"/>
<path d="M105.746 265.4L105.167 263.239" stroke="#42A0F0" stroke-linecap="round"/>
<g filter="url(#filter1_df_7_1847)">
<g filter="url(#filter2_d_7_1847)">
<path d="M235.562 233.765C233.629 233.92 231.676 233.999 229.705 234H92.1812C82.7149 234.035 73.3348 232.201 64.579 228.603C55.8232 225.005 47.8639 219.714 41.1577 213.032C34.4516 206.351 29.1305 198.412 25.4997 189.669C21.869 180.927 20 171.554 20 162.087C20 152.621 21.869 143.248 25.4997 134.506C29.1305 125.763 34.4516 117.824 41.1577 111.143C47.8639 104.461 55.8232 99.17 64.579 95.5718C73.3348 91.9737 82.7149 90.1397 92.1812 90.175H143.457C160.081 53.6 198.368 28 242.941 28C302.768 28 351.268 74.115 351.268 131C351.268 187.885 302.768 234 242.941 234C240.461 234 238.001 233.922 235.562 233.765Z" fill="url(#paint0_linear_7_1847)"/>
<path d="M242.941 233C250.227 233 257.508 232.302 264.582 230.926C271.475 229.585 278.255 227.584 284.734 224.978C291.095 222.42 297.229 219.254 302.968 215.568C308.651 211.917 313.995 207.725 318.851 203.107C323.707 198.49 328.115 193.411 331.953 188.009C335.827 182.557 339.154 176.728 341.842 170.686C344.579 164.532 346.682 158.093 348.09 151.547C349.536 144.831 350.269 137.917 350.269 131C350.269 124.082 349.536 117.169 348.09 110.452C346.682 103.906 344.579 97.4673 341.842 91.3142C339.154 85.2716 335.827 79.4433 331.953 73.991C328.115 68.5893 323.707 63.5095 318.851 58.8928C313.995 54.2752 308.651 50.0829 302.968 46.4323C297.229 42.7461 291.095 39.5801 284.734 37.0221C278.255 34.4165 271.475 32.4154 264.582 31.0742C257.508 29.6979 250.227 29 242.941 29C221.57 29 200.931 34.9523 183.255 46.2135C174.734 51.6418 167.078 58.1939 160.498 65.6878C153.876 73.2291 148.449 81.6069 144.367 90.5885L144.101 91.1747H143.457H92.1812C82.6077 91.1747 73.321 93.0495 64.5792 96.747C60.3776 98.5242 56.325 100.724 52.5341 103.285C48.7789 105.822 45.2477 108.735 42.0385 111.945C38.8293 115.154 35.9157 118.685 33.3788 122.44C30.8177 126.231 28.618 130.284 26.8408 134.485C23.1433 143.227 21.2686 152.514 21.2686 162.087C21.2686 171.661 23.1433 180.948 26.8408 189.689C28.618 193.891 30.8177 197.944 33.3788 201.735C35.9157 205.49 38.8293 209.021 42.0385 212.23C45.2477 215.439 48.7789 218.353 52.5341 220.89C56.325 223.451 60.3776 225.651 64.5792 227.428C73.321 231.125 82.6077 233 92.1812 233H229.706C231.629 233 233.572 232.922 235.483 232.768L235.555 232.762L235.627 232.767C238.046 232.922 240.507 233 242.941 233ZM242.941 234C240.462 234 238.001 233.921 235.563 233.765C233.632 233.92 231.676 234 229.706 234H92.1812C52.4651 234 20.2686 201.803 20.2686 162.087C20.2686 122.371 52.4651 90.1747 92.1812 90.1747H143.457C160.081 53.5954 198.366 28 242.941 28C302.769 28 351.269 74.1151 351.269 131C351.269 187.885 302.769 234 242.941 234Z" fill="white" fill-opacity="0.5"/>
</g>
</g>
<defs>
<filter id="filter0_f_7_1847" x="114.367" y="165.204" width="140.398" height="147.546" filterUnits="userSpaceOnUse" color-interpolation-filters="sRGB">
<feFlood flood-opacity="0" result="BackgroundImageFix"/>
<feBlend mode="normal" in="SourceGraphic" in2="BackgroundImageFix" result="shape"/>
<feGaussianBlur stdDeviation="2" result="effect1_foregroundBlur_7_1847"/>
</filter>
<filter id="filter1_df_7_1847" x="0" y="0" width="391.269" height="266" filterUnits="userSpaceOnUse" color-interpolation-filters="sRGB">
<feFlood flood-opacity="0" result="BackgroundImageFix"/>
<feColorMatrix in="SourceAlpha" type="matrix" values="0 0 0 0 0 0 0 0 0 0 0 0 0 0 0 0 0 0 127 0" result="hardAlpha"/>
<feOffset dx="10" dy="2"/>
<feGaussianBlur stdDeviation="15"/>
<feColorMatrix type="matrix" values="0 0 0 0 0.258824 0 0 0 0 0.627451 0 0 0 0 0.941176 0 0 0 0.596 0"/>
<feBlend mode="normal" in2="BackgroundImageFix" result="effect1_dropShadow_7_1847"/>
<feBlend mode="normal" in="SourceGraphic" in2="effect1_dropShadow_7_1847" result="shape"/>
<feGaussianBlur stdDeviation="2" result="effect2_foregroundBlur_7_1847"/>
</filter>
<filter id="filter2_d_7_1847" x="0" y="0" width="391.269" height="266" filterUnits="userSpaceOnUse" color-interpolation-filters="sRGB">
<feFlood flood-opacity="0" result="BackgroundImageFix"/>
<feColorMatrix in="SourceAlpha" type="matrix" values="0 0 0 0 0 0 0 0 0 0 0 0 0 0 0 0 0 0 127 0" result="hardAlpha"/>
<feOffset dx="10" dy="2"/>
<feGaussianBlur stdDeviation="15"/>
<feColorMatrix type="matrix" values="0 0 0 0 0.501961 0 0 0 0 0.501961 0 0 0 0 0.501961 0 0 0 0.302 0"/>
<feBlend mode="normal" in2="BackgroundImageFix" result="effect1_dropShadow_7_1847"/>
<feBlend mode="normal" in="SourceGraphic" in2="effect1_dropShadow_7_1847" result="shape"/>
</filter>
<linearGradient id="paint0_linear_7_1847" x1="154.164" y1="53.9561" x2="220.206" y2="245.168" gradientUnits="userSpaceOnUse">
<stop stop-color="white" stop-opacity="0.596"/>
<stop offset="1" stop-color="#F7F7F7" stop-opacity="0.204"/>
</linearGradient>
</defs>
</svg>
